<svg width="18" height="19" viewBox="0 0 18 19" fill="none" xmlns="http://www.w3.org/2000/svg">
<path d="M1.0885 9.15417H16.3273" stroke="#6D737A" stroke-width="1.08848" stroke-linecap="round" stroke-linejoin="round"/>
<path d="M15.2388 13.5082V15.1409C15.2388 15.2852 15.1814 15.4237 15.0794 15.5257C14.9773 15.6278 14.8389 15.6851 14.6945 15.6851H13.0618C12.9175 15.6851 12.779 15.6278 12.677 15.5257C12.5749 15.4237 12.5176 15.2852 12.5176 15.1409V13.5082" stroke="#6D737A" stroke-width="1.08848" stroke-linecap="round" stroke-linejoin="round"/>
<path d="M4.89815 13.5082V15.1409C4.89815 15.2852 4.84081 15.4237 4.73874 15.5257C4.63668 15.6278 4.49825 15.6851 4.35391 15.6851H2.72118C2.57684 15.6851 2.43841 15.6278 2.33635 15.5257C2.23428 15.4237 2.17694 15.2852 2.17694 15.1409V13.5082" stroke="#6D737A" stroke-width="1.08848" stroke-linecap="round" stroke-linejoin="round"/>
<path d="M4.35394 11.3312H5.44243" stroke="#6D737A" stroke-width="1.08848" stroke-linecap="round" stroke-linejoin="round"/>
<path d="M11.9733 11.3312H13.0618" stroke="#6D737A" stroke-width="1.08848" stroke-linecap="round" stroke-linejoin="round"/>
<path d="M15.2387 9.15428L13.2046 4.58265C13.1624 4.48593 13.093 4.40357 13.0048 4.3456C12.9167 4.28762 12.8135 4.25653 12.708 4.2561H4.70766C4.60214 4.25653 4.49901 4.28762 4.41084 4.3456C4.32267 4.40357 4.25325 4.48593 4.21104 4.58265L2.17694 9.15428V13.5082H15.2387V9.15428Z" stroke="#6D737A" stroke-width="1.08848" stroke-linecap="round" stroke-linejoin="round"/>
</svg>
