<svg width="18" height="19" viewBox="0 0 18 19" fill="none" xmlns="http://www.w3.org/2000/svg">
<path d="M1.0885 9.15417H16.3273" stroke="#6D737A" stroke-width="1.08848" stroke-linecap="round" stroke-linejoin="round"/>
<path d="M15.2388 13.5082V15.1409C15.2388 15.2852 15.1814 15.4237 15.0794 15.5257C14.9773 15.6278 14.8389 15.6851 14.6945 15.6851H13.0618C12.9175 15.6851 12.779 15.6278 12.677 15.5257C12.5749 15.4237 12.5176 15.2852 12.5176 15.1409V13.5082" stroke="#6D737A" stroke-width="1.08848" stroke-linecap="round" stroke-linejoin="round"/>
<path d="M4.89821 13.5082V15.1409C4.89821 15.2852 4.84087 15.4237 4.7388 15.5257C4.63674 15.6278 4.49831 15.6851 4.35397 15.6851H2.72124C2.5769 15.6851 2.43847 15.6278 2.33641 15.5257C2.23434 15.4237 2.177 15.2852 2.177 15.1409V13.5082" stroke="#6D737A" stroke-width="1.08848" stroke-linecap="round" stroke-linejoin="round"/>
<path d="M4.35388 11.3312H5.44236" stroke="#6D737A" stroke-width="1.08848" stroke-linecap="round" stroke-linejoin="round"/>
<path d="M11.9733 11.3312H13.0617" stroke="#6D737A" stroke-width="1.08848" stroke-linecap="round" stroke-linejoin="round"/>
<path d="M15.2388 9.15428L13.2047 4.58265C13.1625 4.48593 13.0931 4.40357 13.0049 4.3456C12.9167 4.28762 12.8136 4.25653 12.7081 4.2561H4.70772C4.6022 4.25653 4.49907 4.28762 4.4109 4.3456C4.32273 4.40357 4.25331 4.48593 4.2111 4.58265L2.177 9.15428V13.5082H15.2388V9.15428Z" stroke="#6D737A" stroke-width="1.08848" stroke-linecap="round" stroke-linejoin="round"/>
</svg>
