<svg width="16" height="16" viewBox="0 0 16 16" fill="none" xmlns="http://www.w3.org/2000/svg">
<path d="M7.81469 13.1826C7.81469 13.1826 2.14551 10.0079 2.14551 6.15281C2.14551 5.47131 2.38163 4.81086 2.81369 4.28383C3.24575 3.7568 3.84707 3.39574 4.51534 3.26209C5.1836 3.12843 5.87753 3.23044 6.47907 3.55075C7.0806 3.87107 7.55257 4.3899 7.81469 5.01898V5.01898C8.0768 4.3899 8.54878 3.87107 9.15031 3.55075C9.75184 3.23044 10.4458 3.12843 11.114 3.26209C11.7823 3.39574 12.3836 3.7568 12.8157 4.28383C13.2477 4.81086 13.4839 5.47131 13.4839 6.15281C13.4839 10.0079 7.81469 13.1826 7.81469 13.1826Z" stroke="#4A60A1" stroke-width="0.936687" stroke-linecap="round" stroke-linejoin="round"/>
</svg>
