<svg width="16" height="16" viewBox="0 0 16 16" fill="none" xmlns="http://www.w3.org/2000/svg">
<path d="M4.16021 10.0078C5.16213 10.0078 5.97434 9.19557 5.97434 8.19365C5.97434 7.19173 5.16213 6.37952 4.16021 6.37952C3.15829 6.37952 2.34607 7.19173 2.34607 8.19365C2.34607 9.19557 3.15829 10.0078 4.16021 10.0078Z" stroke="#4A60A1" stroke-width="0.936687" stroke-linecap="round" stroke-linejoin="round"/>
<path d="M10.5097 14.0896C11.5116 14.0896 12.3238 13.2774 12.3238 12.2754C12.3238 11.2735 11.5116 10.4613 10.5097 10.4613C9.50777 10.4613 8.69556 11.2735 8.69556 12.2754C8.69556 13.2774 9.50777 14.0896 10.5097 14.0896Z" stroke="#4A60A1" stroke-width="0.936687" stroke-linecap="round" stroke-linejoin="round"/>
<path d="M10.5097 5.926C11.5116 5.926 12.3238 5.11379 12.3238 4.11187C12.3238 3.10995 11.5116 2.29773 10.5097 2.29773C9.50777 2.29773 8.69556 3.10995 8.69556 4.11187C8.69556 5.11379 9.50777 5.926 10.5097 5.926Z" stroke="#4A60A1" stroke-width="0.936687" stroke-linecap="round" stroke-linejoin="round"/>
<path d="M8.98464 5.09265L5.68518 7.21292" stroke="#4A60A1" stroke-width="0.936687" stroke-linecap="round" stroke-linejoin="round"/>
<path d="M5.68518 9.17444L8.98464 11.2947" stroke="#4A60A1" stroke-width="0.936687" stroke-linecap="round" stroke-linejoin="round"/>
</svg>
