<svg width="20" height="21" viewBox="0 0 20 21" fill="none" xmlns="http://www.w3.org/2000/svg">
<path d="M8.07034 9.90291C8.07034 9.90291 9.96267 9.76425 9.96267 7.57395C9.96267 5.3835 8.41451 4.31451 6.45343 4.31451H0.000274658V16.5551H6.45343C6.45343 16.5551 10.3928 16.6779 10.3928 12.9422C10.3928 12.9423 10.5646 9.90291 8.07034 9.90291V9.90291ZM5.98893 6.49014H6.45343C6.45343 6.49014 7.3306 6.49014 7.3306 7.76371C7.3306 9.03713 6.81473 9.22176 6.22959 9.22176H2.84362V6.49014H5.98893V6.49014ZM6.27107 14.3795H2.84362V11.1084H6.45343C6.45343 11.1084 7.76081 11.0915 7.76081 12.7894C7.76081 14.2212 6.78432 14.3687 6.27107 14.3795V14.3795ZM15.6467 7.42887C10.8776 7.42887 10.8819 12.1321 10.8819 12.1321C10.8819 12.1321 10.5547 16.8111 15.6467 16.8111C15.6467 16.8111 19.8901 17.0504 19.8901 13.5562H17.7078C17.7078 13.5562 17.7806 14.872 15.7195 14.872C15.7195 14.872 13.5369 15.0164 13.5369 12.7425H19.9629C19.9629 12.7424 20.666 7.42887 15.6467 7.42887ZM13.5129 11.1084C13.5129 11.1084 13.7794 9.22172 15.6952 9.22172C17.6107 9.22172 17.5867 11.1084 17.5867 11.1084H13.5129ZM18.095 6.54297H12.9786V5.03564H18.095V6.54297Z" fill="#4A60A1"/>
</svg>
